<svg width="42" height="42" viewBox="0 0 42 42" fill="none" xmlns="http://www.w3.org/2000/svg">
<g clip-path="url(#clip0)">
<path d="M41.3305 32.4333L25.277 4.62793C24.3843 3.08181 22.7855 2.15863 21 2.15863C19.2146 2.15863 17.6156 3.08181 16.723 4.62793L0.669558 32.4333C-0.223186 33.9796 -0.223186 35.8257 0.669558 37.3719C1.5623 38.9182 3.16109 39.8412 4.94658 39.8412H37.0534C38.8388 39.8412 40.4376 38.9181 41.3305 37.372C42.2232 35.8257 42.2232 33.9796 41.3305 32.4333ZM39.1995 36.1417C38.7515 36.9176 37.9492 37.3807 37.0534 37.3807H4.94658C4.05063 37.3807 3.24837 36.9176 2.80048 36.1417C2.35259 35.3659 2.35259 34.4396 2.80048 33.6637L18.854 5.85831C19.3019 5.08246 20.1042 4.61932 21.0001 4.61932C21.8958 4.61932 22.6982 5.08246 23.1461 5.85831L39.1996 33.6637C39.6474 34.4396 39.6474 35.3659 39.1995 36.1417Z" fill="#233F4B"/>
<path d="M22.2304 14.4383H19.7698V26.7415H22.2304V14.4383Z" fill="#233F4B"/>
<path d="M21.0001 29.2023C20.0955 29.2023 19.3596 29.9382 19.3596 30.8427C19.3596 31.7473 20.0955 32.4832 21.0001 32.4832C21.9046 32.4832 22.6406 31.7473 22.6406 30.8427C22.6406 29.9382 21.9047 29.2023 21.0001 29.2023Z" fill="#233F4B"/>
</g>
<defs>
<clipPath id="clip0">
<rect width="42" height="42" fill="white"/>
</clipPath>
</defs>
</svg>
