<svg width="33" height="48" viewBox="0 0 33 48" fill="none" xmlns="http://www.w3.org/2000/svg">
<path d="M27.0987 0.510635H11.4923C8.51748 0.510635 6.09772 2.95262 6.09772 5.96075V13.1867C6.09772 13.7997 6.59444 14.2968 7.2078 14.2968C7.82081 14.2968 8.31754 13.7997 8.31754 13.1867V5.97185C8.3099 5.12245 8.63967 4.30464 9.23498 3.69892C9.83098 3.0925 10.6425 2.74851 11.4923 2.74191H27.1099C28.8638 2.74191 30.2843 4.19565 30.2843 5.97185V41.9354C30.2926 42.7848 29.9621 43.6026 29.3668 44.2087C28.7715 44.8144 27.9593 45.1588 27.1099 45.1657H11.4923C9.73865 45.1657 8.31754 43.7113 8.31754 41.9354V34.765C8.31754 34.152 7.82081 33.6553 7.2078 33.6553C6.59444 33.6553 6.09772 34.152 6.09772 34.765V41.9354C6.09772 44.9436 8.51748 47.3855 11.4923 47.3855H27.1099C30.0847 47.3855 32.5041 44.9436 32.5041 41.9354V5.97185C32.5041 2.96372 30.0847 0.510635 27.0987 0.510635V0.510635Z" fill="#003D4A"/>
<path d="M14.3449 28.0941C13.9533 28.5634 14.0134 29.2608 14.4792 29.6565C14.9451 30.0525 15.6431 29.9991 16.0433 29.5371L20.1505 24.6864L20.1834 24.6531C20.1945 24.6416 20.206 24.6194 20.2168 24.6087C20.2306 24.5979 20.2386 24.5812 20.2386 24.5639C20.2501 24.5531 20.2612 24.5306 20.2723 24.5198C20.2834 24.5087 20.2834 24.4865 20.2942 24.475C20.3056 24.4643 20.3056 24.442 20.3167 24.4309C20.3278 24.4198 20.3278 24.3976 20.3389 24.3868C20.3497 24.3643 20.3497 24.3532 20.3612 24.3313C20.3612 24.3199 20.3723 24.298 20.3723 24.2865C20.3723 24.2643 20.383 24.2532 20.383 24.231C20.383 24.2202 20.3945 24.1977 20.3945 24.1869C20.3945 24.1647 20.4052 24.1421 20.4052 24.1199V24.0866C20.4167 24.0168 20.4167 23.9457 20.4052 23.8759V23.8426C20.4052 23.8203 20.3945 23.7985 20.3945 23.7763C20.3945 23.7648 20.383 23.7429 20.383 23.7315C20.383 23.7093 20.3723 23.6982 20.3723 23.6759C20.3723 23.6652 20.3612 23.6426 20.3612 23.6319C20.3497 23.6096 20.3497 23.5985 20.3389 23.5763C20.3278 23.5652 20.3278 23.543 20.3167 23.5315C20.3056 23.5097 20.3056 23.4986 20.2942 23.4875C20.2834 23.476 20.2834 23.4541 20.2723 23.4434C20.2612 23.4319 20.2501 23.4097 20.2386 23.3986C20.2279 23.3878 20.2279 23.3764 20.2168 23.3542C20.206 23.3431 20.1945 23.3208 20.1834 23.3097L20.1505 23.2768L16.0433 18.4258C15.648 17.9572 14.9471 17.8971 14.4782 18.2925C14.0089 18.6882 13.9495 19.3887 14.3449 19.858L16.9087 22.8883H1.64659C1.03392 22.8883 0.536499 23.3851 0.536499 23.9981C0.536499 24.6107 1.03392 25.1082 1.64659 25.1082H16.9087L14.3449 28.0941Z" fill="#003D4A"/>
</svg>
