<svg width="19" height="22" viewBox="0 0 19 22" fill="none" xmlns="http://www.w3.org/2000/svg">
<path d="M9.2769 11.8542C9.29968 11.8542 9.32246 11.8542 9.3498 11.8542C9.35891 11.8542 9.36802 11.8542 9.37713 11.8542C9.3908 11.8542 9.40902 11.8542 9.42269 11.8542C10.7575 11.8314 11.8373 11.3622 12.6345 10.4647C14.3885 8.48747 14.0969 5.09795 14.0651 4.77449C13.9512 2.34624 12.8031 1.18451 11.8555 0.642369C11.1493 0.236902 10.3247 0.0182232 9.40447 0H9.37258C9.36802 0 9.35891 0 9.35435 0H9.32702C8.82132 0 7.82816 0.0820046 6.87599 0.624146C5.91927 1.16629 4.75299 2.32802 4.63909 4.77449C4.6072 5.09795 4.31563 8.48747 6.06961 10.4647C6.86233 11.3622 7.94205 11.8314 9.2769 11.8542ZM5.85549 4.88838C5.85549 4.87472 5.86005 4.86105 5.86005 4.85194C6.01039 1.58542 8.3293 1.23462 9.32246 1.23462H9.34069C9.3498 1.23462 9.36346 1.23462 9.37713 1.23462C10.6072 1.26196 12.6983 1.7631 12.8395 4.85194C12.8395 4.8656 12.8395 4.87927 12.8441 4.88838C12.8487 4.92027 13.1676 8.01823 11.7188 9.64921C11.1448 10.2961 10.3794 10.615 9.37258 10.6241C9.36346 10.6241 9.35891 10.6241 9.3498 10.6241C9.34069 10.6241 9.33613 10.6241 9.32702 10.6241C8.32474 10.615 7.55481 10.2961 6.98533 9.64921C5.54114 8.02734 5.85094 4.91572 5.85549 4.88838Z" fill="#233F4B"/>
<path d="M18.7119 17.4761C18.7119 17.4715 18.7119 17.467 18.7119 17.4624C18.7119 17.426 18.7074 17.3895 18.7074 17.3485C18.68 16.4465 18.6208 14.3371 16.6436 13.6629C16.6299 13.6583 16.6117 13.6538 16.598 13.6492C14.5434 13.1253 12.8349 11.9408 12.8167 11.9271C12.5388 11.7312 12.1561 11.7995 11.9602 12.0775C11.7643 12.3554 11.8327 12.738 12.1106 12.9339C12.188 12.9886 14.0012 14.2506 16.27 14.8337C17.3315 15.2118 17.45 16.3462 17.4819 17.385C17.4819 17.426 17.4819 17.4624 17.4864 17.4989C17.491 17.9089 17.4636 18.5421 17.3908 18.9066C16.6527 19.3257 13.7598 20.7745 9.35887 20.7745C4.97618 20.7745 2.06502 19.3212 1.32242 18.902C1.24953 18.5376 1.21764 17.9043 1.22675 17.4943C1.22675 17.4579 1.23131 17.4214 1.23131 17.3804C1.2632 16.3417 1.38165 15.2073 2.44315 14.8292C4.71194 14.246 6.52516 12.9795 6.6026 12.9294C6.88051 12.7335 6.94885 12.3508 6.75295 12.0729C6.55705 11.795 6.17436 11.7267 5.89645 11.9226C5.87823 11.9362 4.17892 13.1207 2.11513 13.6446C2.09691 13.6492 2.08324 13.6538 2.06958 13.6583C0.0923561 14.3371 0.0331307 16.4465 0.00579584 17.344C0.00579584 17.385 0.00579574 17.4214 0.00123993 17.4579C0.00123993 17.4624 0.00123993 17.467 0.00123993 17.4715C-0.00331588 17.7084 -0.00787159 18.9248 0.233586 19.5353C0.279144 19.6538 0.361149 19.754 0.470488 19.8223C0.607162 19.9134 3.88279 22 9.36342 22C14.8441 22 18.1197 19.9089 18.2564 19.8223C18.3611 19.754 18.4477 19.6538 18.4933 19.5353C18.7211 18.9294 18.7165 17.713 18.7119 17.4761Z" fill="#233F4B"/>
</svg>
