<svg width="19" height="19" viewBox="0 0 19 19" fill="none" xmlns="http://www.w3.org/2000/svg">
<path d="M18.4568 2.59747C18.1773 2.31748 17.7237 2.317 17.4442 2.59628L8.85368 11.1642L5.75423 7.79786C5.48641 7.50715 5.0336 7.4883 4.7424 7.75608C4.45143 8.0239 4.4328 8.47693 4.70062 8.7679L8.3049 12.6822C8.4369 12.8257 8.62163 12.909 8.81642 12.9131C8.82165 12.9133 8.8267 12.9133 8.83171 12.9133C9.021 12.9133 9.2031 12.8381 9.33725 12.7044L18.4554 3.61022C18.7356 3.33097 18.7361 2.87746 18.4568 2.59747Z" fill="#233F4B"/>
<path d="M18.2839 8.7839C17.8884 8.7839 17.5678 9.10445 17.5678 9.5C17.5678 13.9488 13.9488 17.5678 9.5 17.5678C5.05148 17.5678 1.43216 13.9488 1.43216 9.5C1.43216 5.05148 5.05148 1.43216 9.5 1.43216C9.89551 1.43216 10.2161 1.11161 10.2161 0.7161C10.2161 0.320551 9.89551 0 9.5 0C4.26164 0 0 4.26164 0 9.5C0 14.7381 4.26164 19 9.5 19C14.7381 19 19 14.7381 19 9.5C19 9.10449 18.6794 8.7839 18.2839 8.7839Z" fill="#233F4B"/>
</svg>
