<svg width="22" height="22" viewBox="0 0 22 22" fill="none" xmlns="http://www.w3.org/2000/svg">
<path d="M21.8463 12.7556C21.8003 12.562 21.6273 12.4254 21.4283 12.4254C20.8432 12.4254 19.7935 12.134 18.9058 11.7482V9.88365C18.9058 9.17287 18.3275 8.59461 17.6167 8.59461H16.7574V0.860223C16.7574 0.386376 16.3719 0.000869751 15.898 0.000869751H3.00774C2.53389 0.000869751 2.14838 0.386376 2.14838 0.860223V6.01656H0.859353C0.385506 6.01656 0 6.40206 0 6.87591V19.3366C0 20.0473 0.578259 20.6256 1.28903 20.6256H15.2456C15.751 21.0927 16.35 21.5385 17.0601 21.9439C17.1261 21.9816 17.1996 22.0004 17.2731 22.0004C17.3466 22.0004 17.4201 21.9815 17.4862 21.9439C20.4597 20.2464 21.4889 17.8412 21.8286 16.1223C22.1959 14.2643 21.8608 12.8164 21.8463 12.7556ZM3.00774 0.860223H15.898V8.59461H8.45479L7.73457 6.7941C7.54564 6.32176 7.10909 6.01651 6.62243 6.01651H3.00774V0.860223ZM0.859353 19.3366V18.9069H3.0935C3.33081 18.9069 3.52318 18.7145 3.52318 18.4772C3.52318 18.2399 3.33081 18.0475 3.0935 18.0475H0.859353V6.87591H6.62243C6.77394 6.87591 6.88943 6.9951 6.9367 7.11326L7.76499 9.18387C7.83025 9.34702 7.98825 9.45397 8.16394 9.45397H17.6168C17.8538 9.45397 18.0465 9.64672 18.0465 9.88365V11.3081C17.856 11.1902 17.6941 11.0705 17.5753 10.9529C17.4079 10.7873 17.1385 10.7873 16.971 10.9529C16.2663 11.6497 14.0728 12.4254 13.1179 12.4254C12.9189 12.4254 12.7459 12.562 12.6999 12.7556C12.6854 12.8164 12.3503 14.2643 12.7176 16.1223C12.9276 17.1845 13.4011 18.5088 14.4338 19.7662H1.28903C1.05211 19.7662 0.859353 19.5735 0.859353 19.3366ZM20.9856 15.9557C20.5566 18.1256 19.3082 19.846 17.2731 21.0726C15.2492 19.8527 14.0031 18.1437 13.5674 15.9898C13.3237 14.7844 13.4117 13.7538 13.4821 13.2622C14.5907 13.1375 16.3417 12.5115 17.2731 11.8198C18.2048 12.5117 19.9562 13.1378 21.0649 13.2623C21.1351 13.7474 21.2222 14.7585 20.9856 15.9557Z" fill="#233F4B"/>
<path d="M4.57604 2.57832H14.3297C14.567 2.57832 14.7593 2.38595 14.7593 2.14864C14.7593 1.91133 14.567 1.71896 14.3297 1.71896H4.57604C4.33873 1.71896 4.14636 1.91133 4.14636 2.14864C4.14636 2.38595 4.33873 2.57832 4.57604 2.57832Z" fill="#233F4B"/>
<path d="M14.7593 3.86736C14.7593 3.63005 14.567 3.43768 14.3297 3.43768H4.57604C4.33873 3.43768 4.14636 3.63005 4.14636 3.86736C4.14636 4.10467 4.33873 4.29703 4.57604 4.29703H14.3297C14.5669 4.29703 14.7593 4.10467 14.7593 3.86736Z" fill="#233F4B"/>
<path d="M14.3297 5.15639H9.45287C9.21556 5.15639 9.02319 5.34875 9.02319 5.58606C9.02319 5.82337 9.21556 6.01574 9.45287 6.01574H14.3297C14.567 6.01574 14.7594 5.82337 14.7594 5.58606C14.7594 5.34875 14.567 5.15639 14.3297 5.15639Z" fill="#233F4B"/>
<path d="M14.3298 6.87509H11.7947C11.5574 6.87509 11.365 7.06746 11.365 7.30477C11.365 7.54208 11.5574 7.73444 11.7947 7.73444H14.3298C14.5671 7.73444 14.7594 7.54208 14.7594 7.30477C14.7594 7.06746 14.567 6.87509 14.3298 6.87509Z" fill="#233F4B"/>
<path d="M18.8781 14.0763C18.5338 14.0763 18.2102 14.2104 17.9667 14.4539L16.7808 15.6398L16.5793 15.4383C16.3358 15.1948 16.0122 15.0608 15.6679 15.0608C15.3236 15.0608 14.9999 15.1949 14.7565 15.4383C14.513 15.6817 14.3789 16.0054 14.3789 16.3497C14.3789 16.694 14.513 17.0177 14.7564 17.2611L15.8694 18.3741C16.1206 18.6254 16.4507 18.751 16.7808 18.751C17.1108 18.751 17.4409 18.6253 17.6922 18.3741L19.7895 16.2768C20.2921 15.7742 20.2921 14.9564 19.7895 14.4539C19.5462 14.2104 19.2225 14.0763 18.8781 14.0763ZM19.1819 15.669L17.0846 17.7664C16.9171 17.9338 16.6446 17.9338 16.4771 17.7664L15.3642 16.6534C15.283 16.5723 15.2383 16.4644 15.2383 16.3497C15.2383 16.2349 15.283 16.1271 15.3642 16.0459C15.4453 15.9648 15.5532 15.9201 15.6679 15.9201C15.7826 15.9201 15.8905 15.9648 15.9716 16.0459L16.477 16.5513C16.5575 16.6318 16.6668 16.6771 16.7808 16.6771C16.8947 16.6771 17.0041 16.6318 17.0846 16.5513L18.5744 15.0615C18.6555 14.9804 18.7634 14.9357 18.8781 14.9357C18.9929 14.9357 19.1007 14.9804 19.1818 15.0615C19.3494 15.229 19.3494 15.5015 19.1819 15.669Z" fill="#233F4B"/>
<path d="M5.02698 18.0468C4.78966 18.0468 4.59729 18.2392 4.59729 18.4765C4.59729 18.7138 4.78966 18.9062 5.02698 18.9062H5.02728C5.26459 18.9062 5.45684 18.7138 5.45684 18.4765C5.45684 18.2392 5.26429 18.0468 5.02698 18.0468Z" fill="#233F4B"/>
</svg>
