<svg width="22" height="21" viewBox="0 0 22 21" fill="none" xmlns="http://www.w3.org/2000/svg">
<path d="M21.6333 3.15652H17.6V0.350725C17.6 0.157037 17.4358 0 17.2333 0H4.76667C4.56418 0 4.4 0.157037 4.4 0.350725V5.26087H0.366667C0.164175 5.26087 0 5.41791 0 5.6116V19.9913C0 20.185 0.164175 20.342 0.366667 20.342C0.569158 20.342 0.733333 20.185 0.733333 19.9913V5.96232H4.4V20.342C4.4 20.5357 4.56418 20.6928 4.76667 20.6928H17.2333C17.4358 20.6928 17.6 20.5357 17.6 20.342V3.85797H21.2667V19.9913C21.2667 20.185 21.4308 20.342 21.6333 20.342C21.8358 20.342 22 20.185 22 19.9913V3.50725C22 3.31356 21.8358 3.15652 21.6333 3.15652ZM10.6333 19.9913H9.16667V16.8348H10.6333V19.9913ZM12.8333 19.9913H11.3667V16.8348H12.8333V19.9913ZM16.8667 19.9913H13.5667V16.4841C13.5667 16.2904 13.4025 16.1333 13.2 16.1333H8.8C8.59751 16.1333 8.43333 16.2904 8.43333 16.4841V19.9913H5.13333V0.70145H16.8667V19.9913Z" fill="#233F4B"/>
<path d="M8.43336 1.40289H6.23336C6.03087 1.40289 5.8667 1.55993 5.8667 1.75362V3.85797C5.8667 4.05165 6.03087 4.20869 6.23336 4.20869H8.43336C8.63585 4.20869 8.80002 4.05165 8.80002 3.85797V1.75362C8.80002 1.55993 8.63585 1.40289 8.43336 1.40289ZM8.06669 3.50724H6.60003V2.10434H8.06669V3.50724Z" fill="#233F4B"/>
<path d="M12.1 1.40289H9.89999C9.6975 1.40289 9.53333 1.55993 9.53333 1.75362V3.85797C9.53333 4.05165 9.6975 4.20869 9.89999 4.20869H12.1C12.3025 4.20869 12.4667 4.05165 12.4667 3.85797V1.75362C12.4667 1.55993 12.3025 1.40289 12.1 1.40289ZM11.7333 3.50724H10.2667V2.10434H11.7333V3.50724Z" fill="#233F4B"/>
<path d="M15.7666 1.40289H13.5666C13.3641 1.40289 13.2 1.55993 13.2 1.75362V3.85797C13.2 4.05165 13.3641 4.20869 13.5666 4.20869H15.7666C15.9691 4.20869 16.1333 4.05165 16.1333 3.85797V1.75362C16.1333 1.55993 15.9691 1.40289 15.7666 1.40289ZM15.4 3.50724H13.9333V2.10434H15.4V3.50724Z" fill="#233F4B"/>
<path d="M8.43336 4.91016H6.23336C6.03087 4.91016 5.8667 5.06719 5.8667 5.26088V7.36523C5.8667 7.55892 6.03087 7.71595 6.23336 7.71595H8.43336C8.63585 7.71595 8.80002 7.55892 8.80002 7.36523V5.26088C8.80002 5.06719 8.63585 4.91016 8.43336 4.91016ZM8.06669 7.0145H6.60003V5.61161H8.06669V7.0145Z" fill="#233F4B"/>
<path d="M12.1 4.91016H9.89999C9.6975 4.91016 9.53333 5.06719 9.53333 5.26088V7.36523C9.53333 7.55892 9.6975 7.71595 9.89999 7.71595H12.1C12.3025 7.71595 12.4667 7.55892 12.4667 7.36523V5.26088C12.4667 5.06719 12.3025 4.91016 12.1 4.91016ZM11.7333 7.0145H10.2667V5.61161H11.7333V7.0145Z" fill="#233F4B"/>
<path d="M15.7666 4.91016H13.5666C13.3641 4.91016 13.2 5.06719 13.2 5.26088V7.36523C13.2 7.55892 13.3641 7.71595 13.5666 7.71595H15.7666C15.9691 7.71595 16.1333 7.55892 16.1333 7.36523V5.26088C16.1333 5.06719 15.9691 4.91016 15.7666 4.91016ZM15.4 7.0145H13.9333V5.61161H15.4V7.0145Z" fill="#233F4B"/>
<path d="M8.43336 8.41739H6.23336C6.03087 8.41739 5.8667 8.57443 5.8667 8.76812V10.8725C5.8667 11.0662 6.03087 11.2232 6.23336 11.2232H8.43336C8.63585 11.2232 8.80002 11.0662 8.80002 10.8725V8.76812C8.80002 8.57443 8.63585 8.41739 8.43336 8.41739ZM8.06669 10.5217H6.60003V9.11884H8.06669V10.5217Z" fill="#233F4B"/>
<path d="M12.1 8.41739H9.89999C9.6975 8.41739 9.53333 8.57443 9.53333 8.76812V10.8725C9.53333 11.0662 9.6975 11.2232 9.89999 11.2232H12.1C12.3025 11.2232 12.4667 11.0662 12.4667 10.8725V8.76812C12.4667 8.57443 12.3025 8.41739 12.1 8.41739ZM11.7333 10.5217H10.2667V9.11884H11.7333V10.5217Z" fill="#233F4B"/>
<path d="M15.7666 8.41739H13.5666C13.3641 8.41739 13.2 8.57443 13.2 8.76812V10.8725C13.2 11.0662 13.3641 11.2232 13.5666 11.2232H15.7666C15.9691 11.2232 16.1333 11.0662 16.1333 10.8725V8.76812C16.1333 8.57443 15.9691 8.41739 15.7666 8.41739ZM15.4 10.5217H13.9333V9.11884H15.4V10.5217Z" fill="#233F4B"/>
<path d="M8.43336 11.9247H6.23336C6.03087 11.9247 5.8667 12.0817 5.8667 12.2754V14.3797C5.8667 14.5734 6.03087 14.7305 6.23336 14.7305H8.43336C8.63585 14.7305 8.80002 14.5734 8.80002 14.3797V12.2754C8.80002 12.0817 8.63585 11.9247 8.43336 11.9247ZM8.06669 14.029H6.60003V12.6261H8.06669V14.029Z" fill="#233F4B"/>
<path d="M12.1 11.9247H9.89999C9.6975 11.9247 9.53333 12.0817 9.53333 12.2754V14.3797C9.53333 14.5734 9.6975 14.7305 9.89999 14.7305H12.1C12.3025 14.7305 12.4667 14.5734 12.4667 14.3797V12.2754C12.4667 12.0817 12.3025 11.9247 12.1 11.9247ZM11.7333 14.029H10.2667V12.6261H11.7333V14.029Z" fill="#233F4B"/>
<path d="M15.7666 11.9247H13.5666C13.3641 11.9247 13.2 12.0817 13.2 12.2754V14.3797C13.2 14.5734 13.3641 14.7305 13.5666 14.7305H15.7666C15.9691 14.7305 16.1333 14.5734 16.1333 14.3797V12.2754C16.1333 12.0817 15.9691 11.9247 15.7666 11.9247ZM15.4 14.029H13.9333V12.6261H15.4V14.029Z" fill="#233F4B"/>
<path d="M2.20001 6.66376H1.83334C1.63085 6.66376 1.46667 6.82079 1.46667 7.01448V7.36521C1.46667 7.55889 1.63085 7.71593 1.83334 7.71593H2.20001C2.4025 7.71593 2.56668 7.55889 2.56668 7.36521V7.01448C2.56668 6.82079 2.4025 6.66376 2.20001 6.66376Z" fill="#233F4B"/>
<path d="M3.66668 6.66376H3.30002C3.09752 6.66376 2.93335 6.82079 2.93335 7.01448V7.36521C2.93335 7.55889 3.09752 7.71593 3.30002 7.71593H3.66668C3.86917 7.71593 4.03335 7.55889 4.03335 7.36521V7.01448C4.03335 6.82079 3.86917 6.66376 3.66668 6.66376Z" fill="#233F4B"/>
<path d="M2.20001 8.06665H1.83334C1.63085 8.06665 1.46667 8.22369 1.46667 8.41738V8.7681C1.46667 8.96179 1.63085 9.11883 1.83334 9.11883H2.20001C2.4025 9.11883 2.56668 8.96179 2.56668 8.7681V8.41738C2.56668 8.22369 2.4025 8.06665 2.20001 8.06665Z" fill="#233F4B"/>
<path d="M3.66668 8.06665H3.30002C3.09752 8.06665 2.93335 8.22369 2.93335 8.41738V8.7681C2.93335 8.96179 3.09752 9.11883 3.30002 9.11883H3.66668C3.86917 9.11883 4.03335 8.96179 4.03335 8.7681V8.41738C4.03335 8.22369 3.86917 8.06665 3.66668 8.06665Z" fill="#233F4B"/>
<path d="M2.20001 9.46957H1.83334C1.63085 9.46957 1.46667 9.62661 1.46667 9.8203V10.171C1.46667 10.3647 1.63085 10.5217 1.83334 10.5217H2.20001C2.4025 10.5217 2.56668 10.3647 2.56668 10.171V9.8203C2.56668 9.62661 2.4025 9.46957 2.20001 9.46957Z" fill="#233F4B"/>
<path d="M3.66668 9.46957H3.30002C3.09752 9.46957 2.93335 9.62661 2.93335 9.8203V10.171C2.93335 10.3647 3.09752 10.5217 3.30002 10.5217H3.66668C3.86917 10.5217 4.03335 10.3647 4.03335 10.171V9.8203C4.03335 9.62661 3.86917 9.46957 3.66668 9.46957Z" fill="#233F4B"/>
<path d="M2.20001 10.8724H1.83334C1.63085 10.8724 1.46667 11.0295 1.46667 11.2232V11.5739C1.46667 11.7676 1.63085 11.9246 1.83334 11.9246H2.20001C2.4025 11.9246 2.56668 11.7676 2.56668 11.5739V11.2232C2.56668 11.0295 2.4025 10.8724 2.20001 10.8724Z" fill="#233F4B"/>
<path d="M3.66668 10.8724H3.30002C3.09752 10.8724 2.93335 11.0295 2.93335 11.2232V11.5739C2.93335 11.7676 3.09752 11.9246 3.30002 11.9246H3.66668C3.86917 11.9246 4.03335 11.7676 4.03335 11.5739V11.2232C4.03335 11.0295 3.86917 10.8724 3.66668 10.8724Z" fill="#233F4B"/>
<path d="M2.20001 12.2754H1.83334C1.63085 12.2754 1.46667 12.4324 1.46667 12.6261V12.9768C1.46667 13.1705 1.63085 13.3275 1.83334 13.3275H2.20001C2.4025 13.3275 2.56668 13.1705 2.56668 12.9768V12.6261C2.56668 12.4324 2.4025 12.2754 2.20001 12.2754Z" fill="#233F4B"/>
<path d="M3.66668 12.2754H3.30002C3.09752 12.2754 2.93335 12.4324 2.93335 12.6261V12.9768C2.93335 13.1705 3.09752 13.3275 3.30002 13.3275H3.66668C3.86917 13.3275 4.03335 13.1705 4.03335 12.9768V12.6261C4.03335 12.4324 3.86917 12.2754 3.66668 12.2754Z" fill="#233F4B"/>
<path d="M2.20001 13.6783H1.83334C1.63085 13.6783 1.46667 13.8353 1.46667 14.029V14.3797C1.46667 14.5734 1.63085 14.7305 1.83334 14.7305H2.20001C2.4025 14.7305 2.56668 14.5734 2.56668 14.3797V14.029C2.56668 13.8353 2.4025 13.6783 2.20001 13.6783Z" fill="#233F4B"/>
<path d="M3.66668 13.6783H3.30002C3.09752 13.6783 2.93335 13.8353 2.93335 14.029V14.3797C2.93335 14.5734 3.09752 14.7305 3.30002 14.7305H3.66668C3.86917 14.7305 4.03335 14.5734 4.03335 14.3797V14.029C4.03335 13.8353 3.86917 13.6783 3.66668 13.6783Z" fill="#233F4B"/>
<path d="M2.20001 15.0812H1.83334C1.63085 15.0812 1.46667 15.2382 1.46667 15.4319V15.7826C1.46667 15.9763 1.63085 16.1334 1.83334 16.1334H2.20001C2.4025 16.1334 2.56668 15.9763 2.56668 15.7826V15.4319C2.56668 15.2382 2.4025 15.0812 2.20001 15.0812Z" fill="#233F4B"/>
<path d="M3.66668 15.0812H3.30002C3.09752 15.0812 2.93335 15.2382 2.93335 15.4319V15.7826C2.93335 15.9763 3.09752 16.1334 3.30002 16.1334H3.66668C3.86917 16.1334 4.03335 15.9763 4.03335 15.7826V15.4319C4.03335 15.2382 3.86917 15.0812 3.66668 15.0812Z" fill="#233F4B"/>
<path d="M2.20001 16.4841H1.83334C1.63085 16.4841 1.46667 16.6411 1.46667 16.8348V17.1855C1.46667 17.3792 1.63085 17.5363 1.83334 17.5363H2.20001C2.4025 17.5363 2.56668 17.3792 2.56668 17.1855V16.8348C2.56668 16.6411 2.4025 16.4841 2.20001 16.4841Z" fill="#233F4B"/>
<path d="M3.66668 16.4841H3.30002C3.09752 16.4841 2.93335 16.6411 2.93335 16.8348V17.1855C2.93335 17.3792 3.09752 17.5363 3.30002 17.5363H3.66668C3.86917 17.5363 4.03335 17.3792 4.03335 17.1855V16.8348C4.03335 16.6411 3.86917 16.4841 3.66668 16.4841Z" fill="#233F4B"/>
<path d="M2.20001 17.887H1.83334C1.63085 17.887 1.46667 18.044 1.46667 18.2377V18.5884C1.46667 18.7821 1.63085 18.9391 1.83334 18.9391H2.20001C2.4025 18.9391 2.56668 18.7821 2.56668 18.5884V18.2377C2.56668 18.044 2.4025 17.887 2.20001 17.887Z" fill="#233F4B"/>
<path d="M3.66668 17.887H3.30002C3.09752 17.887 2.93335 18.044 2.93335 18.2377V18.5884C2.93335 18.7821 3.09752 18.9391 3.30002 18.9391H3.66668C3.86917 18.9391 4.03335 18.7821 4.03335 18.5884V18.2377C4.03335 18.044 3.86917 17.887 3.66668 17.887Z" fill="#233F4B"/>
<path d="M20.1667 4.55942H18.7C18.4975 4.55942 18.3334 4.71645 18.3334 4.91014V6.31304C18.3334 6.50673 18.4975 6.66377 18.7 6.66377H20.1667C20.3692 6.66377 20.5334 6.50673 20.5334 6.31304V4.91014C20.5334 4.71645 20.3692 4.55942 20.1667 4.55942ZM19.8 5.96232H19.0667V5.26087H19.8V5.96232Z" fill="#233F4B"/>
<path d="M20.1667 7.3652H18.7C18.4975 7.3652 18.3334 7.52224 18.3334 7.71593V9.11883C18.3334 9.31252 18.4975 9.46955 18.7 9.46955H20.1667C20.3692 9.46955 20.5334 9.31252 20.5334 9.11883V7.71593C20.5334 7.52224 20.3692 7.3652 20.1667 7.3652ZM19.8 8.7681H19.0667V8.06665H19.8V8.7681Z" fill="#233F4B"/>
<path d="M20.1667 10.171H18.7C18.4975 10.171 18.3334 10.3281 18.3334 10.5217V11.9247C18.3334 12.1183 18.4975 12.2754 18.7 12.2754H20.1667C20.3692 12.2754 20.5334 12.1183 20.5334 11.9247V10.5217C20.5334 10.3281 20.3692 10.171 20.1667 10.171ZM19.8 11.5739H19.0667V10.8725H19.8V11.5739Z" fill="#233F4B"/>
<path d="M20.1667 12.9768H18.7C18.4975 12.9768 18.3334 13.1338 18.3334 13.3275V14.7304C18.3334 14.9241 18.4975 15.0812 18.7 15.0812H20.1667C20.3692 15.0812 20.5334 14.9241 20.5334 14.7304V13.3275C20.5334 13.1338 20.3692 12.9768 20.1667 12.9768ZM19.8 14.3797H19.0667V13.6783H19.8V14.3797Z" fill="#233F4B"/>
<path d="M20.1667 15.7826H18.7C18.4975 15.7826 18.3334 15.9397 18.3334 16.1333V17.5362C18.3334 17.7299 18.4975 17.887 18.7 17.887H20.1667C20.3692 17.887 20.5334 17.7299 20.5334 17.5362V16.1333C20.5334 15.9397 20.3692 15.7826 20.1667 15.7826ZM19.8 17.1855H19.0667V16.4841H19.8V17.1855Z" fill="#233F4B"/>
</svg>
