<svg width="50" height="50" viewBox="0 0 50 50" fill="none" xmlns="http://www.w3.org/2000/svg">
<path d="M25 50C11.2144 50 0 38.7856 0 25C0 11.2144 11.2144 0 25 0C38.7856 0 50 11.2144 50 25C50 38.7856 38.7856 50 25 50ZM25 3.125C12.9375 3.125 3.125 12.9375 3.125 25C3.125 37.0625 12.9375 46.875 25 46.875C37.0625 46.875 46.875 37.0625 46.875 25C46.875 12.9375 37.0625 3.125 25 3.125Z" fill="#003D4A"/>
<path d="M35.9375 26.5625H14.0625C13.2 26.5625 12.5 25.8625 12.5 25C12.5 24.1375 13.2 23.4375 14.0625 23.4375H35.9375C36.8 23.4375 37.5 24.1375 37.5 25C37.5 25.8625 36.8 26.5625 35.9375 26.5625Z" fill="#003D4A"/>
<path d="M25 37.5C24.1375 37.5 23.4375 36.8 23.4375 35.9375V14.0625C23.4375 13.2 24.1375 12.5 25 12.5C25.8625 12.5 26.5625 13.2 26.5625 14.0625V35.9375C26.5625 36.8 25.8625 37.5 25 37.5Z" fill="#003D4A"/>
</svg>
