<svg width="28" height="30" viewBox="0 0 28 30" fill="none" xmlns="http://www.w3.org/2000/svg">
<path d="M26.8571 19.2857C26.2654 19.2857 25.7857 19.7654 25.7857 20.3572V26.7857C25.7857 27.3775 25.306 27.8572 24.7142 27.8572H3.28576C2.694 27.8572 2.21431 27.3775 2.21431 26.7857V20.3572C2.21431 19.7654 1.73461 19.2857 1.14286 19.2857C0.551105 19.2857 0.0714111 19.7654 0.0714111 20.3572V26.7857C0.0714111 28.5609 1.51049 30 3.28569 30H24.7143C26.4895 30 27.9286 28.5609 27.9286 26.7857V20.3572C27.9286 19.7654 27.4489 19.2857 26.8571 19.2857Z" fill="#233F4B"/>
<path d="M20.0905 18.5282C19.6753 18.1272 19.017 18.1272 18.6019 18.5282L15.0715 22.0564V1.07145C15.0715 0.479694 14.5918 0 14 0C13.4083 0 12.9286 0.479694 12.9286 1.07145V22.0564L9.40035 18.5282C8.97471 18.1171 8.29645 18.1289 7.88537 18.5545C7.48434 18.9697 7.48434 19.628 7.88537 20.0432L13.2425 25.4003C13.6604 25.8192 14.3388 25.8201 14.7577 25.4023C14.7583 25.4016 14.759 25.401 14.7597 25.4003L20.1168 20.0432C20.5279 19.6175 20.5161 18.9393 20.0905 18.5282Z" fill="#233F4B"/>
</svg>
