<svg width="22" height="21" viewBox="0 0 22 21" fill="none" xmlns="http://www.w3.org/2000/svg">
<path d="M21.5351 0.986343H5.02825C4.7715 0.986343 4.56334 1.18545 4.56334 1.43104V3.34491C4.56334 3.5905 4.7715 3.78961 5.02825 3.78961H5.46366V5.10082H2.9274C1.31322 5.10076 0 6.35719 0 7.90154V13.1425C0 14.6865 1.31322 15.9427 2.9274 15.9427H5.46372V17.2099C5.46372 18.7799 6.79908 20.0572 8.44047 20.0572H18.1228C19.7642 20.0572 21.0996 18.7799 21.0996 17.2099V3.78955H21.535C21.7918 3.78955 21.9999 3.59045 21.9999 3.34485V1.43104C22 1.18539 21.7918 0.986343 21.5351 0.986343ZM5.49317 1.87574H21.0702V2.90021H5.49317V1.87574ZM2.9274 15.0532C1.82593 15.0532 0.929826 14.1961 0.929826 13.1425V7.90154C0.929826 6.8476 1.82593 5.99016 2.9274 5.99016H5.46372V6.69569H2.9274C2.23264 6.69569 1.66743 7.23663 1.66743 7.90148V13.1425C1.66743 13.807 2.23264 14.3477 2.9274 14.3477H5.46372V15.0532H2.9274ZM5.46372 7.58515V13.4583H2.9274C2.74534 13.4583 2.59725 13.3167 2.59725 13.1425V7.90154C2.59725 7.7271 2.74534 7.58515 2.9274 7.58515H5.46372ZM20.1698 17.2098C20.1698 18.2894 19.2516 19.1677 18.1229 19.1677H8.44047C7.31178 19.1677 6.39355 18.2894 6.39355 17.2098V3.78955H20.1698V17.2098Z" fill="#233F4B"/>
</svg>
